grf
version=1
nRows=19
nColumns=37
inDegrees=no
endheader
time	ground_force_1_vx	ground_force_1_vy	ground_force_1_vz	ground_force_1_px	ground_force_1_py	ground_force_1_pz	ground_moment_1_mx	ground_moment_1_my	ground_moment_1_mz	ground_force_2_vx	ground_force_2_vy	ground_force_2_vz	ground_force_2_px	ground_force_2_py	ground_force_2_pz	ground_moment_2_mx	ground_moment_2_my	ground_moment_2_mz	ground_force_3_vx	ground_force_3_vy	ground_force_3_vz	ground_force_3_px	ground_force_3_py	ground_force_3_pz	ground_moment_3_mx	ground_moment_3_my	ground_moment_3_mz	ground_force_4_vx	ground_force_4_vy	ground_force_4_vz	ground_force_4_px	ground_force_4_py	ground_force_4_pz	ground_moment_4_mx	ground_moment_4_my	ground_moment_4_mz
      0.00000000	      0.00000000	     -0.00000000	      0.00000000	      0.00000000	      0.00000000	      0.00000000	      0.00000000	      0.00000000	      0.00000000	     11.23638248	     67.80284882	   -410.57989502	   -345.24016726	  -1118.34071073	      0.00000000	      0.00000000	     -0.00000000	  -1261.78725817	     -1.44041109	    -64.07510363	   -411.88009644	   -308.59555857	   -670.77224850	      0.00000000	      0.00000000	      0.00000000	   1603.17886683	      0.00000000	     -0.00000000	      0.00000000	      0.00000000	      0.00000000	      0.00000000	      0.00000000	      0.00000000	      0.00000000
      0.01000000	      0.00000000	     -0.00000000	      0.00000000	      0.00000000	      0.00000000	      0.00000000	      0.00000000	      0.00000000	      0.00000000	     10.35231590	     66.98344421	   -408.56018066	   -343.44056231	  -1119.62657394	      0.00000000	      0.00000000	     -0.00000000	   -945.33109115	     -0.15198213	    -65.95097350	   -414.19396973	   -311.00205422	   -669.55004403	      0.00000000	      0.00000000	      0.00000000	   1507.20606683	      0.00000000	     -0.00000000	      0.00000000	      0.00000000	      0.00000000	      0.00000000	      0.00000000	      0.00000000	      0.00000000
      0.02000000	      0.00000000	     -0.00000000	      0.00000000	      0.00000000	      0.00000000	      0.00000000	      0.00000000	      0.00000000	      0.00000000	      8.96017838	     65.48217773	   -404.20721436	   -339.86105735	  -1118.04766199	      0.00000000	      0.00000000	      0.00000000	   -658.86333604	      0.77724198	    -67.14553840	   -416.20495605	   -312.67452207	   -669.44433511	      0.00000000	      0.00000000	      0.00000000	   1438.15836699	      0.00000000	     -0.00000000	      0.00000000	      0.00000000	      0.00000000	      0.00000000	      0.00000000	      0.00000000	      0.00000000
      0.03000000	      0.00000000	     -0.00000000	      0.00000000	      0.00000000	      0.00000000	      0.00000000	      0.00000000	      0.00000000	      0.00000000	      6.46274996	     63.88505173	   -404.20782471	   -337.43217717	  -1118.72719716	      0.00000000	      0.00000000	      0.00000000	   -582.64347243	      1.62181977	    -66.38920607	   -417.50180054	   -314.47330304	   -669.45522745	      0.00000000	      0.00000000	      0.00000000	   1323.07022906	      0.00000000	     -0.00000000	      0.00000000	      0.00000000	      0.00000000	      0.00000000	      0.00000000	      0.00000000	      0.00000000
      0.04000000	      0.00000000	     -0.00000000	      0.00000000	      0.00000000	      0.00000000	      0.00000000	      0.00000000	      0.00000000	      0.00000000	      4.28829670	     62.36668015	   -402.34490967	   -331.91138375	  -1117.72449761	      0.00000000	      0.00000000	     -0.00000000	   -395.21205129	      3.05873580	    -66.04342678	   -420.47634888	   -317.12431610	   -670.21097603	      0.00000000	      0.00000000	      0.00000000	   1162.71597785	      0.00000000	     -0.00000000	      0.00000000	      0.00000000	      0.00000000	      0.00000000	      0.00000000	      0.00000000	      0.00000000
      0.05000000	      0.00000000	     -0.00000000	      0.00000000	      0.00000000	      0.00000000	      0.00000000	      0.00000000	      0.00000000	      0.00000000	      0.66482520	     61.85933685	   -403.13806152	   -328.54220264	  -1118.25073891	      0.00000000	      0.00000000	     -0.00000000	    -89.68621103	      4.32547045	    -65.42511024	   -423.96710205	   -320.08092307	   -670.81483531	      0.00000000	      0.00000000	      0.00000000	    846.53775137	      0.00000000	     -0.00000000	      0.00000000	      0.00000000	      0.00000000	      0.00000000	      0.00000000	      0.00000000	      0.00000000
      0.06000000	      0.00000000	     -0.00000000	      0.00000000	      0.00000000	      0.00000000	      0.00000000	      0.00000000	      0.00000000	      0.00000000	     -1.96517229	     60.87352371	   -406.59591675	   -324.61828544	  -1120.45976364	      0.00000000	      0.00000000	      0.00000000	      7.32063948	      4.61295515	    -64.80679362	   -426.57894897	   -322.47181775	   -672.64787756	      0.00000000	      0.00000000	      0.00000000	    729.64476026	      0.00000000	     -0.00000000	      0.00000000	      0.00000000	      0.00000000	      0.00000000	      0.00000000	      0.00000000	      0.00000000
      0.07000000	      0.00000000	     -0.00000000	      0.00000000	      0.00000000	      0.00000000	      0.00000000	      0.00000000	      0.00000000	      0.00000000	     -3.36827087	     60.40641022	   -403.59866333	   -321.22292930	  -1120.40166521	      0.00000000	      0.00000000	      0.00000000	    161.60521820	      3.87901673	    -64.42929111	   -431.65774536	   -323.74364771	   -671.05352882	      0.00000000	      0.00000000	      0.00000000	    608.64952399	      0.00000000	     -0.00000000	      0.00000000	      0.00000000	      0.00000000	      0.00000000	      0.00000000	      0.00000000	      0.00000000
      0.08000000	      0.00000000	     -0.00000000	      0.00000000	      0.00000000	      0.00000000	      0.00000000	      0.00000000	      0.00000000	      0.00000000	     -3.45541787	     60.05012131	   -401.56561279	   -318.52975422	  -1121.54055302	      0.00000000	      0.00000000	      0.00000000	    457.89772672	      3.81455812	    -64.43190036	   -431.45687866	   -324.80507639	   -670.92890542	      0.00000000	      0.00000000	      0.00000000	    704.99391153	      0.00000000	     -0.00000000	      0.00000000	      0.00000000	      0.00000000	      0.00000000	      0.00000000	      0.00000000	      0.00000000
      0.09000000	      0.00000000	     -0.00000000	      0.00000000	      0.00000000	      0.00000000	      0.00000000	      0.00000000	      0.00000000	      0.00000000	     -3.19148135	     60.14470673	   -396.07385254	   -315.14944815	  -1122.75115737	      0.00000000	      0.00000000	      0.00000000	    503.32166270	      4.41390944	    -65.39890328	   -430.40142822	   -326.17760912	   -670.16735204	      0.00000000	      0.00000000	      0.00000000	    595.45064740	      0.00000000	     -0.00000000	      0.00000000	      0.00000000	      0.00000000	      0.00000000	      0.00000000	      0.00000000	      0.00000000
      0.10000000	      0.00000000	     -0.00000000	      0.00000000	      0.00000000	      0.00000000	      0.00000000	      0.00000000	      0.00000000	      0.00000000	     -3.36959743	     60.14112091	   -396.35467529	   -312.27008650	  -1124.21946973	      0.00000000	      0.00000000	      0.00000000	    499.06538268	      5.54740948	    -66.12937213	   -431.28759766	   -326.81710140	   -668.51111025	      0.00000000	      0.00000000	      0.00000000	    657.50602571	      0.00000000	     -0.00000000	      0.00000000	      0.00000000	      0.00000000	      0.00000000	      0.00000000	      0.00000000	      0.00000000
      0.11000000	      0.00000000	     -0.00000000	      0.00000000	      0.00000000	      0.00000000	      0.00000000	      0.00000000	      0.00000000	      0.00000000	     -3.21157837	     61.09828949	   -394.49719238	   -309.88432170	  -1124.42319340	      0.00000000	      0.00000000	      0.00000000	    723.45581632	      6.98638997	    -67.08116211	   -429.81225586	   -328.58441076	   -668.07437250	      0.00000000	      0.00000000	      0.00000000	    633.26462386	      0.00000000	     -0.00000000	      0.00000000	      0.00000000	      0.00000000	      0.00000000	      0.00000000	      0.00000000	      0.00000000
      0.12000000	      0.00000000	     -0.00000000	      0.00000000	      0.00000000	      0.00000000	      0.00000000	      0.00000000	      0.00000000	      0.00000000	     -4.14780664	     61.61115265	   -394.75640869	   -308.04090549	  -1124.45166720	      0.00000000	      0.00000000	      0.00000000	    812.99725513	      7.82836083	    -67.81221077	   -429.54803467	   -330.25716024	   -668.57470463	      0.00000000	      0.00000000	      0.00000000	    533.07435434	      0.00000000	     -0.00000000	      0.00000000	      0.00000000	      0.00000000	      0.00000000	      0.00000000	      0.00000000	      0.00000000
      0.13000000	      0.00000000	     -0.00000000	      0.00000000	      0.00000000	      0.00000000	      0.00000000	      0.00000000	      0.00000000	      0.00000000	     -4.61681986	     62.03475952	   -397.15499878	   -306.57330908	  -1125.50359756	      0.00000000	      0.00000000	      0.00000000	    924.34752552	      9.15908683	    -69.46559986	   -431.28839111	   -330.73973271	   -668.06051248	      0.00000000	      0.00000000	      0.00000000	    677.27951227	      0.00000000	     -0.00000000	      0.00000000	      0.00000000	      0.00000000	      0.00000000	      0.00000000	      0.00000000	      0.00000000
      0.14000000	      0.00000000	     -0.00000000	      0.00000000	      0.00000000	      0.00000000	      0.00000000	      0.00000000	      0.00000000	      0.00000000	     -5.19681883	     62.12389374	   -396.70733643	   -305.11080238	  -1125.74422835	      0.00000000	      0.00000000	      0.00000000	   1040.92222323	     10.33524472	    -70.19300170	   -432.07687378	   -331.54330416	   -667.83399152	      0.00000000	      0.00000000	      0.00000000	    640.93262064	      0.00000000	     -0.00000000	      0.00000000	      0.00000000	      0.00000000	      0.00000000	      0.00000000	      0.00000000	      0.00000000
      0.15000000	      0.00000000	     -0.00000000	      0.00000000	      0.00000000	      0.00000000	      0.00000000	      0.00000000	      0.00000000	      0.00000000	     -6.13342762	     62.74797058	   -397.41427612	   -303.09021383	  -1126.35015712	      0.00000000	      0.00000000	      0.00000000	    966.63216968	     10.80004842	    -70.08358859	   -433.64886475	   -332.34108380	   -667.90608259	      0.00000000	     -0.00000000	     -0.00000000	    635.37903654	      0.00000000	     -0.00000000	      0.00000000	      0.00000000	      0.00000000	      0.00000000	      0.00000000	      0.00000000	      0.00000000
      0.16000000	      0.00000000	     -0.00000000	      0.00000000	      0.00000000	      0.00000000	      0.00000000	      0.00000000	      0.00000000	      0.00000000	     -7.02514410	     61.94563293	   -395.82568359	   -302.08515224	  -1126.76161381	      0.00000000	      0.00000000	      0.00000000	   1164.60543753	     11.68738809	    -69.17788036	   -435.04290771	   -333.42732076	   -667.55132911	      0.00000000	     -0.00000000	     -0.00000000	    438.06550572	      0.00000000	     -0.00000000	      0.00000000	      0.00000000	      0.00000000	      0.00000000	      0.00000000	      0.00000000	      0.00000000
      0.17000000	      0.00000000	     -0.00000000	      0.00000000	      0.00000000	      0.00000000	      0.00000000	      0.00000000	      0.00000000	      0.00000000	     -7.89531517	     61.18857956	   -393.26660156	   -300.21539990	  -1125.84385841	      0.00000000	      0.00000000	      0.00000000	   1415.84530773	     12.21983593	    -68.89091599	   -435.13012695	   -333.92169634	   -667.81273153	      0.00000000	      0.00000000	      0.00000000	    435.99574384	      0.00000000	     -0.00000000	      0.00000000	      0.00000000	      0.00000000	      0.00000000	      0.00000000	      0.00000000	      0.00000000
      0.18000000	      0.00000000	     -0.00000000	      0.00000000	      0.00000000	      0.00000000	      0.00000000	      0.00000000	      0.00000000	      0.00000000	     -9.18929672	     60.94276047	   -390.00442505	   -299.39613695	  -1125.98899134	      0.00000000	      0.00000000	      0.00000000	   1631.40833807	     12.68537879	    -68.16223255	   -433.82113647	   -335.07173482	   -668.67915442	      0.00000000	      0.00000000	      0.00000000	    270.48589071	      0.00000000	     -0.00000000	      0.00000000	      0.00000000	      0.00000000	      0.00000000	      0.00000000	      0.00000000	      0.00000000
